<svg data-v-423bf9ae="" xmlns="http://www.w3.org/2000/svg" viewBox="0 0 236 90" class="iconLeft"><!----><!----><!----><g data-v-423bf9ae="" id="75522d81-b5f1-4355-b811-43206899b71b" fill="white" transform="matrix(4.552351943151171,0,0,4.552351943151171,103.16920466377123,3.801214999863994)"><path d="M4.52 15.64L4.52 15.64L4.52 15.64Q2.97 15.64 1.90 14.38L1.90 14.38L1.90 14.38Q0.84 13.12 0.84 10.71L0.84 10.71L0.84 10.71Q0.84 8.93 1.41 7.47L1.41 7.47L1.41 7.47Q1.99 6.01 3.21 5.08L3.21 5.08L3.21 5.08Q4.44 4.14 5.98 4.14L5.98 4.14L5.98 4.14Q7.52 4.14 8.22 4.89L8.22 4.89L8.22 4.89Q8.92 5.64 8.92 6.61L8.92 6.61L8.92 6.61Q8.92 7.57 8.43 8.16L8.43 8.16L8.43 8.16Q7.94 8.74 7.15 8.74L7.15 8.74L7.15 8.74Q6.90 8.74 6.54 8.62L6.54 8.62L6.54 8.62Q6.86 8.29 7.11 7.68L7.11 7.68L7.11 7.68Q7.35 7.07 7.35 6.45L7.35 6.45L7.35 6.45Q7.35 5.84 7.02 5.40L7.02 5.40L7.02 5.40Q6.69 4.96 5.98 4.96L5.98 4.96L5.98 4.96Q4.90 4.96 4.05 5.85L4.05 5.85L4.05 5.85Q3.21 6.73 2.78 8.03L2.78 8.03L2.78 8.03Q2.35 9.32 2.35 10.70L2.35 10.70L2.35 10.70Q2.35 12.63 3.09 13.59L3.09 13.59L3.09 13.59Q3.84 14.55 5.01 14.55L5.01 14.55L5.01 14.55Q5.80 14.55 6.62 14.07L6.62 14.07L6.62 14.07Q7.45 13.59 7.98 12.70L7.98 12.70L7.98 12.70Q8.19 12.70 8.37 12.82L8.37 12.82L8.37 12.82Q8.55 12.95 8.55 13.08L8.55 13.08L8.55 13.08Q7.77 14.56 6.58 15.13L6.58 15.13L6.58 15.13Q5.54 15.64 4.52 15.64ZM10.77 14.41L10.77 14.41L10.77 14.41Q10.75 14.18 10.75 13.69L10.75 13.69L10.75 13.69Q10.75 13.19 11.22 9.44L11.22 9.44L11.22 9.44Q11.69 5.68 11.69 4.28L11.69 4.28L11.69 4.28Q11.69 2.88 11.52 2.46L11.52 2.46L11.52 2.46Q12.31 2.76 12.63 3.33L12.63 3.33L12.63 3.33Q12.95 3.91 12.95 4.72L12.95 4.72L12.95 4.72Q12.95 5.53 12.54 8.92L12.54 8.92L12.54 8.92Q12.14 12.31 12.14 14.38L12.14 14.38L12.14 14.38Q12.14 14.83 12.19 15.64L12.19 15.64L12.19 15.64Q11.42 15.58 11.10 15.27L11.10 15.27L11.10 15.27Q10.84 15.02 10.77 14.41ZM18.47 8.08L18.47 8.08L18.47 8.08Q17.63 8.08 17.05 9.04L17.05 9.04L17.05 9.04Q16.46 10.01 16.27 11.31L16.27 11.31L16.66 11.31L16.66 11.31Q17.40 11.31 17.95 11.10L17.95 11.10L17.95 11.10Q18.49 10.89 18.79 10.56L18.79 10.56L18.79 10.56Q19.35 9.91 19.35 9.10L19.35 9.10L19.35 9.10Q19.35 8.64 19.13 8.36L19.13 8.36L19.13 8.36Q18.91 8.08 18.47 8.08ZM20.44 13.75L20.44 13.75Q19.80 14.80 19.03 15.22L19.03 15.22L19.03 15.22Q18.26 15.64 17.24 15.64L17.24 15.64L17.24 15.64Q16.23 15.64 15.47 14.74L15.47 14.74L15.47 14.74Q14.71 13.85 14.71 12.22L14.71 12.22L14.71 12.22Q14.71 10.37 15.71 8.92L15.71 8.92L15.71 8.92Q16.20 8.22 16.99 7.78L16.99 7.78L16.99 7.78Q17.78 7.35 18.73 7.35L18.73 7.35L18.73 7.35Q20.83 7.35 20.83 9.38L20.83 9.38L20.83 9.38Q20.83 10.60 19.89 11.29L19.89 11.29L19.89 11.29Q18.94 11.98 17.70 11.98L17.70 11.98L17.70 11.98Q16.87 11.98 16.21 11.83L16.21 11.83L16.21 11.83Q16.20 11.97 16.20 12.26L16.20 12.26L16.20 12.26Q16.20 14.74 17.67 14.74L17.67 14.74L17.67 14.74Q19.05 14.74 19.92 13.37L19.92 13.37L19.92 13.37Q20.44 13.44 20.44 13.75L20.44 13.75ZM27.75 10.83L27.75 10.83L27.75 10.83Q27.75 9.46 27.41 8.87L27.41 8.87L27.41 8.87Q27.06 8.27 26.43 8.27L26.43 8.27L26.43 8.27Q25.79 8.27 25.14 8.90L25.14 8.90L25.14 8.90Q24.50 9.52 24.13 10.44L24.13 10.44L24.13 10.44Q23.76 11.35 23.76 12.34L23.76 12.34L23.76 12.34Q23.76 13.33 24.14 14.05L24.14 14.05L24.14 14.05Q24.51 14.77 25.28 14.77L25.28 14.77L25.28 14.77Q26.38 14.77 27.06 13.48L27.06 13.48L27.06 13.48Q27.75 12.19 27.75 10.83ZM23.69 10.29L23.69 10.29Q24.22 8.78 25.12 8.09L25.12 8.09L25.12 8.09Q26.03 7.39 26.96 7.39L26.96 7.39L26.96 7.39Q27.89 7.39 28.50 8.21L28.50 8.21L28.50 8.21Q29.12 9.03 29.12 10.43L29.12 10.43L29.12 10.43Q29.12 11.97 28.53 13.29L28.53 13.29L28.53 13.29Q27.87 14.74 26.63 15.32L26.63 15.32L26.63 15.32Q25.96 15.64 25.14 15.64L25.14 15.64L25.14 15.64Q24.01 15.64 23.16 14.69L23.16 14.69L23.16 14.69Q22.30 13.75 22.30 11.99L22.30 11.99L22.30 11.99Q22.30 10.23 23.06 8.95L23.06 8.95L23.06 8.95Q23.81 7.66 25.12 7.15L25.12 7.15L25.12 7.15Q25.40 7.15 25.40 7.43L25.40 7.43L25.40 7.43Q24.01 8.34 23.69 10.29L23.69 10.29Z"></path></g><!----><g data-v-423bf9ae="" id="ef1eac56-17bb-4d6c-a93d-5bf514983f23" transform="matrix(1.1020950070755993,0,0,1.1020950070755993,-11.607853754715961,-8.8614117252963)" stroke="none" fill="white"><path d="M34.8 89.1c.1.1.3.1.4.1.4 0 .8-.2.9-.6l13.6-32.8c.2-.5 0-1.1-.5-1.3-.5-.2-1.1 0-1.3.5L34.3 87.8c-.2.5 0 1.1.5 1.3zM56.2 37.6c.1.1.3.1.4.1.4 0 .8-.2.9-.6l10.9-26.2c.2-.5 0-1.1-.5-1.3-.5-.2-1.1 0-1.3.5l-11 26.2c-.2.5 0 1.1.6 1.3zM43.9 57c-.4-.4-1-.3-1.4.1L32 68.7c-.4.4-.3 1 .1 1.4.2.2.4.3.7.3.3 0 .5-.1.7-.3L44 58.5c.3-.5.3-1.1-.1-1.5zM28.7 71.8l-3.5 3.6c-.4.4-.4 1 0 1.4.2.2.4.3.7.3.3 0 .5-.1.7-.3l3.5-3.6c.4-.4.4-1 0-1.4-.4-.4-1-.4-1.4 0zM56.1 43.1c.2.2.4.3.7.3.3 0 .5-.1.7-.3l13.8-15.3c.4-.4.3-1-.1-1.4-.4-.4-1-.3-1.4.1L56 41.7c-.4.4-.3 1 .1 1.4zM15.5 67.5c.2.3.5.5.9.5.2 0 .3 0 .5-.1L48.5 51c.5-.3.7-.9.4-1.4-.3-.5-.9-.7-1.4-.4l-31.6 17c-.5.2-.6.8-.4 1.3zM62.1 41.8c.2.3.5.5.9.5.2 0 .3 0 .5-.1L88.2 29c.5-.3.7-.9.4-1.4-.3-.5-.9-.7-1.4-.4L62.5 40.5c-.5.2-.7.8-.4 1.3zM18.2 54.1l20.1-3c.5-.1.9-.6.8-1.1-.1-.5-.6-.9-1.1-.8l-20.1 3c-.5.1-.9.6-.8 1.1.1.5.5.9 1 .9 0 0 .1 0 .1-.1zM54.4 48.4h.1l32.7-4.8c.5-.1.9-.6.8-1.1s-.6-.9-1.1-.8l-32.7 4.8c-.5.1-.9.6-.8 1.1 0 .5.5.8 1 .8zM11.7 41.1l28.2 5.6h.2c.5 0 .9-.3 1-.8.1-.5-.2-1.1-.8-1.2l-28.2-5.6c-.5-.1-1.1.2-1.2.8s.3 1.1.8 1.2zM63.4 50.1c-.1.5.2 1.1.8 1.2l24.4 4.9h.2c.5 0 .9-.3 1-.8.1-.5-.2-1.1-.8-1.2l-24.4-4.9c-.5-.1-1.1.3-1.2.8zM73.8 60.3l-14.9-8.9c-.5-.3-1.1-.1-1.4.3-.3.5-.1 1.1.3 1.4L72.7 62c.2.1.3.1.5.1.3 0 .7-.2.9-.5.3-.4.1-1.1-.3-1.3zM47.2 45.5c.3-.5.1-1.1-.3-1.4L29.2 33.5c-.5-.3-1.1-.1-1.4.3-.3.5-.1 1.1.3 1.4l17.6 10.6c.2.1.3.1.5.1.4.1.8-.1 1-.4zM78.3 65.3c.2.1.3.1.5.1.3 0 .7-.2.9-.5.3-.5.1-1.1-.3-1.4l-1.4-.7c-.5-.3-1.1-.1-1.4.3-.3.5-.1 1.1.3 1.4l1.4.8zM23.2 32.2l1.4.8c.2.1.3.1.5.1.3 0 .7-.2.9-.5.3-.5.1-1.1-.3-1.4l-1.4-.8c-.5-.3-1.1-.1-1.4.3-.4.6-.2 1.2.3 1.5zM59.5 57.7c-.4.3-.5 1-.1 1.4l17 20.8c.2.2.5.4.8.4.2 0 .4-.1.6-.2.4-.3.5-1 .1-1.4l-17-20.8c-.3-.5-1-.6-1.4-.2zM43.6 39.3c.2.2.5.4.8.4.2 0 .4-.1.6-.2.4-.3.5-1 .1-1.4l-17-20.8c-.4-.4-1-.5-1.4-.1-.4.3-.5 1-.1 1.4l17 20.7zM52.8 51c-.5.2-.8.8-.6 1.3l10.3 29c.1.4.5.7.9.7.1 0 .2 0 .3-.1.5-.2.8-.8.6-1.3L54 51.6c-.1-.5-.7-.8-1.2-.6zM39.5 16.9l10.3 29c.1.4.5.7.9.7.1 0 .2 0 .3-.1.5-.2.8-.8.6-1.3l-10.3-29c-.2-.5-.8-.8-1.3-.6-.4.2-.7.7-.5 1.3zM38.3 13c.1.4.5.7.9.7.1 0 .2 0 .3-.1.5-.2.8-.8.6-1.3L39 9.1c-.2-.5-.8-.8-1.3-.6-.5.2-.8.8-.6 1.3l1.2 3.2zM64.7 84.8c-.5.2-.8.8-.6 1.3l1.2 3.3c.1.4.5.7.9.7.1 0 .2 0 .3-.1.5-.2.8-.8.6-1.3l-1.2-3.3c-.2-.5-.7-.7-1.2-.6zM51.7 64.9c-.6 0-1 .4-1 1l-.1 22.4c0 .6.4 1 1 1s1-.4 1-1l.1-22.4c0-.6-.4-1-1-1zM52.5 40.2c.6 0 1-.4 1-1l.1-27.1c0-.6-.4-1-1-1s-1 .4-1 1l-.1 27.1c0 .5.4 1 1 1z"></path></g><!----></svg>